<svg xmlns="http://www.w3.org/2000/svg" width="328.36065673828125" height="297.49755859375" viewBox="-94.0912857055664 -89.782958984375 328.36065673828125 297.49755859375"><title>Neo4j Graph Visualization</title><desc>Created using Neo4j (http://www.neo4j.com/)</desc><g class="layer relationships"><g class="relationship" transform="translate(62.347100894963134 177.53861389626914) rotate(184.50183313542863)"><path class="outline" fill="#A5ABB6" stroke="none" d="M 25 0.5 L 43.024950731030586 0.5 L 43.024950731030586 -0.5 L 25 -0.5 Z M 71.70463823103059 0.5 L 89.72958896206117 0.5 L 89.72958896206117 3.5 L 96.72958896206117 0 L 89.72958896206117 -3.5 L 89.72958896206117 -0.5 L 71.70463823103059 -0.5 Z"/><text text-anchor="middle" pointer-events="none" font-size="8px" fill="#000000" x="57.364794481030586" y="3" transform="rotate(180 57.364794481030586 0)" font-family="sans-serif">LIKES</text></g><g class="relationship" transform="translate(62.347100894963134 177.53861389626914) rotate(310.63790781870796)"><path class="outline" fill="#A5ABB6" stroke="none" d="M 24.018736134675446,-6.953439040707552 L 24.277555179777966,-5.987513214418485 A 256.1502544228775 256.1502544228775 0 0 1 65.6576119224151,-13.50088928632212 L 65.56033890753561,-14.49614702207515 A 257.1502544228775 257.1502544228775 0 0 0 24.018736134675446,-6.953439040707552 Z M 110.70518745678262,-14.926427769940688 L 110.62690222206766,-13.929496768303324 A 256.1502544228775 256.1502544228775 0 0 1 152.1426502354688,-7.206210153149827 L 151.42156724132641,-4.294159446936307 L 159.0576157156574,-6.009024951186517 L 153.10409422765863,-11.088944428101186 L 152.38301123351624,-8.176893721887666 A 257.1502544228775 257.1502544228775 0 0 0 110.70518745678262,-14.926427769940688"/><text text-anchor="middle" pointer-events="none" font-size="8px" fill="#000000" x="88.12806741575176" y="-12.203964942783557" font-family="sans-serif">FOLLOWS</text></g><g class="relationship" transform="translate(62.347100894963134 177.53861389626914) rotate(360.4714189567581)"><path class="outline" fill="#A5ABB6" stroke="none" d="M 25 0.5 L 46.367846342618904 0.5 L 46.367846342618904 -0.5 L 25 -0.5 Z M 89.5592525926189 0.5 L 110.92709893523781 0.5 L 110.92709893523781 3.5 L 117.92709893523781 0 L 110.92709893523781 -3.5 L 110.92709893523781 -0.5 L 89.5592525926189 -0.5 Z"/><text text-anchor="middle" pointer-events="none" font-size="8px" fill="#000000" x="67.9635494676189" y="3" font-family="sans-serif">LOCATED</text></g><g class="relationship" transform="translate(181.74215861076118 38.42438877095246) rotate(180.4201786284716)"><path class="outline" fill="#A5ABB6" stroke="none" d="M 25 0.5 L 104.47668284079448 0.5 L 104.47668284079448 -0.5 L 25 -0.5 Z M 135.36340159079447 0.5 L 214.84008443158896 0.5 L 214.84008443158896 3.5 L 221.84008443158896 0 L 214.84008443158896 -3.5 L 214.84008443158896 -0.5 L 135.36340159079447 -0.5 Z"/><text text-anchor="middle" pointer-events="none" font-size="8px" fill="#000000" x="119.92004221579448" y="3" transform="rotate(180 119.92004221579448 0)" font-family="sans-serif">OWNS</text></g><g class="relationship" transform="translate(181.74215861076118 38.42438877095246) rotate(208.3180277873679)"><path class="outline" fill="#A5ABB6" stroke="none" d="M 25 0.5 L 46.64017227629003 0.5 L 46.64017227629003 -0.5 L 25 -0.5 Z M 89.83157852629003 0.5 L 111.47175080258006 0.5 L 111.47175080258006 3.5 L 118.47175080258006 0 L 111.47175080258006 -3.5 L 111.47175080258006 -0.5 L 89.83157852629003 -0.5 Z"/><text text-anchor="middle" pointer-events="none" font-size="8px" fill="#000000" x="68.23587540129003" y="3" transform="rotate(180 68.23587540129003 0)" font-family="sans-serif">LOCATED</text></g><g class="relationship" transform="translate(181.74215861076118 38.42438877095246) rotate(490.63790781870796)"><path class="outline" fill="#A5ABB6" stroke="none" d="M 24.018736134675446,-6.953439040707552 L 24.277555179777966,-5.987513214418485 A 256.1502544228775 256.1502544228775 0 0 1 65.6576119224151,-13.50088928632212 L 65.56033890753561,-14.49614702207515 A 257.1502544228775 257.1502544228775 0 0 0 24.018736134675446,-6.953439040707552 Z M 110.70518745678262,-14.926427769940688 L 110.62690222206766,-13.929496768303324 A 256.1502544228775 256.1502544228775 0 0 1 152.1426502354688,-7.206210153149827 L 151.42156724132641,-4.294159446936307 L 159.0576157156574,-6.009024951186517 L 153.10409422765863,-11.088944428101186 L 152.38301123351624,-8.176893721887666 A 257.1502544228775 257.1502544228775 0 0 0 110.70518745678262,-14.926427769940688"/><text text-anchor="middle" pointer-events="none" font-size="8px" fill="#000000" x="88.12806741575176" y="-12.203964942783557" transform="rotate(180 88.12806741575176 -15.203964942783557)" font-family="sans-serif">FOLLOWS</text></g><g class="relationship" transform="translate(204.30131622389038 -60.782955615618945) rotate(528.1813499112)"><path class="outline" fill="#A5ABB6" stroke="none" d="M 25 0.5 L 50.94703277360517 0.5 L 50.94703277360517 -0.5 L 25 -0.5 Z M 94.13843902360517 0.5 L 120.08547179721035 0.5 L 120.08547179721035 3.5 L 127.08547179721035 0 L 120.08547179721035 -3.5 L 120.08547179721035 -0.5 L 94.13843902360517 -0.5 Z"/><text text-anchor="middle" pointer-events="none" font-size="8px" fill="#000000" x="72.54273589860517" y="3" transform="rotate(180 72.54273589860517 0)" font-family="sans-serif">LOCATED</text></g><g class="relationship" transform="translate(-65.09128829234547 36.61420311052818) rotate(447.34825476497315)"><path class="outline" fill="#A5ABB6" stroke="none" d="M 25 0.5 L 43.09902848741477 0.5 L 43.09902848741477 -0.5 L 25 -0.5 Z M 81.41152848741477 0.5 L 99.51055697482954 0.5 L 99.51055697482954 3.5 L 106.51055697482954 0 L 99.51055697482954 -3.5 L 99.51055697482954 -0.5 L 81.41152848741477 -0.5 Z"/><text text-anchor="middle" pointer-events="none" font-size="8px" fill="#000000" x="62.25527848741477" y="3" font-family="sans-serif">SERVES</text></g><g class="relationship" transform="translate(-65.09128829234547 36.61420311052818) rotate(331.2053953458784)"><path class="outline" fill="#A5ABB6" stroke="none" d="M 25 0.5 L 43.67302313435529 0.5 L 43.67302313435529 -0.5 L 25 -0.5 Z M 86.86442938435529 0.5 L 105.53745251871058 0.5 L 105.53745251871058 3.5 L 112.53745251871058 0 L 105.53745251871058 -3.5 L 105.53745251871058 -0.5 L 86.86442938435529 -0.5 Z"/><text text-anchor="middle" pointer-events="none" font-size="8px" fill="#000000" x="65.26872625935529" y="3" font-family="sans-serif">LOCATED</text></g></g><g class="layer nodes"><g class="node" transform="translate(205.26936199630472,178.7145780637499)"><circle class="outline" cx="0" cy="0" r="25" fill="#F79767" stroke="#f36924" stroke-width="2px"/><text text-anchor="middle" pointer-events="none" font-family="sans-serif" dy="1.5625" font-size="25" fill="#FFFFFF"/><text text-anchor="middle" pointer-events="none" y="5" font-size="10px" fill="#FFFFFF" font-family="sans-serif"> Lucca</text></g><g class="node" transform="translate(62.347100894963134,177.53861389626914)"><circle class="outline" cx="0" cy="0" r="25" fill="#57C7E3" stroke="#23b3d7" stroke-width="2px"/><text text-anchor="middle" pointer-events="none" font-family="sans-serif" dy="1.5625" font-size="25" fill="#2A2C34"/><text text-anchor="middle" pointer-events="none" y="5" font-size="10px" fill="#2A2C34" font-family="sans-serif"> User2</text></g><g class="node" transform="translate(181.74215861076118,38.42438877095246)"><circle class="outline" cx="0" cy="0" r="25" fill="#57C7E3" stroke="#23b3d7" stroke-width="2px"/><text text-anchor="middle" pointer-events="none" font-family="sans-serif" dy="1.5625" font-size="25" fill="#2A2C34"/><text text-anchor="middle" pointer-events="none" y="5" font-size="10px" fill="#2A2C34" font-family="sans-serif"> User1</text></g><g class="node" transform="translate(55.43993896936452,-29.63362025086678)"><circle class="outline" cx="0" cy="0" r="25" fill="#F79767" stroke="#f36924" stroke-width="2px"/><text text-anchor="middle" pointer-events="none" font-family="sans-serif" dy="1.5625" font-size="25" fill="#FFFFFF"/><text text-anchor="middle" pointer-events="none" y="5" font-size="10px" fill="#FFFFFF" font-family="sans-serif"> Pisa</text></g><g class="node" transform="translate(204.30131622389038,-60.782955615618945)"><circle class="outline" cx="0" cy="0" r="25" fill="#F16667" stroke="#eb2728" stroke-width="2px"/><text text-anchor="middle" pointer-events="none" font-family="sans-serif" dy="1.5625" font-size="25" fill="#FFFFFF"/><text text-anchor="middle" pointer-events="none" y="5" font-size="10px" fill="#FFFFFF" font-family="sans-serif"> admin</text></g><g class="node" transform="translate(-59.00693073695023,167.98393778700526)"><circle class="outline" cx="0" cy="0" r="25" fill="#D9C8AE" stroke="#c0a378" stroke-width="2px"/><text text-anchor="middle" pointer-events="none" font-family="sans-serif" dy="1.5625" font-size="25" fill="#2A2C34"/><text text-anchor="middle" pointer-events="none" y="5" font-size="10px" fill="#2A2C34" font-family="sans-serif"> Pizza</text></g><g class="node" transform="translate(-65.09128829234547,36.61420311052818)"><circle class="outline" cx="0" cy="0" r="25" fill="#8DCC93" stroke="#5db665" stroke-width="2px"/><text text-anchor="middle" pointer-events="none" font-family="sans-serif" dy="1.5625" font-size="25" fill="#2A2C34"/><text text-anchor="middle" pointer-events="none" font-family="sans-serif" dy="1.5625" font-size="25" fill="#2A2C34"/><text text-anchor="middle" pointer-events="none" y="0" font-size="10px" fill="#2A2C34" font-family="sans-serif"> User1's</text><text text-anchor="middle" pointer-events="none" y="10" font-size="10px" fill="#2A2C34" font-family="sans-serif"> Restaur…</text></g></g></svg>