<svg xmlns="http://www.w3.org/2000/svg" width="388.4195861816406" height="292.8835754394531" viewBox="-93.12750244140625 20.833171844482422 388.4195861816406 292.8835754394531"><title>Neo4j Graph Visualization</title><desc>Created using Neo4j (http://www.neo4j.com/)</desc><g class="layer relationships"><g class="relationship" transform="translate(-64.12749881420166 151.03947828102088) rotate(325.87032156723427)"><path class="outline" fill="#A5ABB6" stroke="none" d="M 25 0.5 L 58.870480453479814 0.5 L 58.870480453479814 -0.5 L 25 -0.5 Z M 114.51110545347981 0.5 L 148.38158590695963 0.5 L 148.38158590695963 3.5 L 155.38158590695963 0 L 148.38158590695963 -3.5 L 148.38158590695963 -0.5 L 114.51110545347981 -0.5 Z"/><text text-anchor="middle" pointer-events="none" font-size="8px" fill="#000000" x="86.69079295347981" y="3" font-family="sans-serif">LOCATED_IN</text></g><g class="relationship" transform="translate(-64.12749881420166 151.03947828102088) rotate(409.4976236640771)"><path class="outline" fill="#A5ABB6" stroke="none" d="M 25 0.5 L 65.24547807622899 0.5 L 65.24547807622899 -0.5 L 25 -0.5 Z M 103.55797807622899 0.5 L 143.80345615245798 0.5 L 143.80345615245798 3.5 L 150.80345615245798 0 L 143.80345615245798 -3.5 L 143.80345615245798 -0.5 L 103.55797807622899 -0.5 Z"/><text text-anchor="middle" pointer-events="none" font-size="8px" fill="#000000" x="84.40172807622899" y="3" font-family="sans-serif">SERVES</text></g><g class="relationship" transform="translate(198.07340473851164 164.34286956920002) rotate(225.4089890198053)"><path class="outline" fill="#A5ABB6" stroke="none" d="M 25 0.5 L 55.30303184212241 0.5 L 55.30303184212241 -0.5 L 25 -0.5 Z M 98.49443809212241 0.5 L 128.79746993424482 0.5 L 128.79746993424482 3.5 L 135.79746993424482 0 L 128.79746993424482 -3.5 L 128.79746993424482 -0.5 L 98.49443809212241 -0.5 Z"/><text text-anchor="middle" pointer-events="none" font-size="8px" fill="#000000" x="76.89873496712241" y="3" transform="rotate(180 76.89873496712241 0)" font-family="sans-serif">LOCATED</text></g><g class="relationship" transform="translate(198.07340473851164 164.34286956920002) rotate(273.1450372049629)"><path class="outline" fill="#A5ABB6" stroke="none" d="M 6.953439040707552 24.018736134675446 L 17.306200844808384 62.65576918623819 A 17.916697508022974 17.916697508022974 0 1 1 -17.306200844808384 62.65576918623819 L -8.765172356425198 30.780216918698923 L -4.901469051268926 31.815493099109005 L -6.4704761275630185 24.148145657226706 L -11.662949835292403 30.00375978339136 L -7.79924653013613 31.039035963801442 L -16.340275018519314 62.91458823134071 A 16.916697508022974 16.916697508022974 0 1 0 16.340275018519314 62.91458823134071 L 5.987513214418485 24.277555179777966 Z"/><text text-anchor="middle" pointer-events="none" font-size="8px" fill="#000000" x="0" y="94.20964923467838" font-family="sans-serif">FOLLOWS</text></g><g class="relationship" transform="translate(198.07340473851164 164.34286956920002) rotate(182.90454803286616)"><path class="outline" fill="#A5ABB6" stroke="none" d="M 24.018736134675446,-6.953439040707552 L 24.277555179777966,-5.987513214418485 A 410.4475521460631 410.4475521460631 0 0 1 112.32930436510438,-19.570357020138317 L 112.285011509097,-20.569375610008763 A 411.4475521460631 411.4475521460631 0 0 0 24.018736134675446,-6.953439040707552 Z M 143.2013322270109,-20.77736743903364 L 143.17048471444238,-19.777843336788806 A 410.4475521460631 410.4475521460631 0 0 1 231.3970146689701,-7.380924662011863 L 230.65961607479713,-4.472962607013255 L 238.30515922966234,-6.144988284774707 L 232.38021279453406,-11.258207402010008 L 231.6428142003611,-8.3502453470114 A 411.4475521460631 411.4475521460631 0 0 0 143.2013322270109,-20.77736743903364"/><text text-anchor="middle" pointer-events="none" font-size="8px" fill="#000000" x="127.74458127187411" y="-17.463874926845733" transform="rotate(180 127.74458127187411 -20.463874926845733)" font-family="sans-serif">OWNS</text></g><g class="relationship" transform="translate(198.07340473851164 164.34286956920002) rotate(182.90454803286616)"><path class="outline" fill="#A5ABB6" stroke="none" d="M 24.018736134675446,6.953439040707552 L 24.277555179777966,5.987513214418485 A 410.4475521460631 410.4475521460631 0 0 0 113.4304598811831,19.617696973568002 L 113.38884984179948,20.616830900838295 A 411.4475521460631 411.4475521460631 0 0 1 24.018736134675446,6.953439040707552 Z M 142.09695532073872,20.809966798893072 L 142.0687919337665,19.810363465748253 A 410.4475521460631 410.4475521460631 0 0 0 231.3970146689701,7.380924662011863 L 230.65961607479713,4.472962607013255 L 238.30515922966234,6.144988284774707 L 232.38021279453406,11.258207402010008 L 231.6428142003611,8.3502453470114 A 411.4475521460631 411.4475521460631 0 0 1 142.09695532073872,20.809966798893072"/><text text-anchor="middle" pointer-events="none" font-size="8px" fill="#000000" x="127.74458127187422" y="23.463874926845733" transform="rotate(180 127.74458127187422 20.463874926845733)" font-family="sans-serif">LIKES</text></g><g class="relationship" transform="translate(198.07340473851164 164.34286956920002) rotate(500.8810853901204)"><path class="outline" fill="#A5ABB6" stroke="none" d="M 25 0.5 L 77.55385718845078 0.5 L 77.55385718845078 -0.5 L 25 -0.5 Z M 106.23354468845078 0.5 L 158.78740187690155 0.5 L 158.78740187690155 3.5 L 165.78740187690155 0 L 158.78740187690155 -3.5 L 158.78740187690155 -0.5 L 106.23354468845078 -0.5 Z"/><text text-anchor="middle" pointer-events="none" font-size="8px" fill="#000000" x="91.89370093845078" y="3" transform="rotate(180 91.89370093845078 0)" font-family="sans-serif">LIKES</text></g></g><g class="layer nodes"><g class="node" transform="translate(-64.12749881420166,151.03947828102088)"><circle class="outline" cx="0" cy="0" r="25" fill="#D9C8AE" stroke="#c0a378" stroke-width="2px"/><text text-anchor="middle" pointer-events="none" font-family="sans-serif" dy="1.5625" font-size="25" fill="#2A2C34"/><text text-anchor="middle" pointer-events="none" y="5" font-size="10px" fill="#2A2C34" font-family="sans-serif"> Restaur…</text></g><g class="node" transform="translate(50.053257021088726,284.71673959359794)"><circle class="outline" cx="0" cy="0" r="25" fill="#F16667" stroke="#eb2728" stroke-width="2px"/><text text-anchor="middle" pointer-events="none" font-family="sans-serif" dy="1.5625" font-size="25" fill="#FFFFFF"/><text text-anchor="middle" pointer-events="none" y="5" font-size="10px" fill="#FFFFFF" font-family="sans-serif"> Cuisine</text></g><g class="node" transform="translate(198.07340473851164,164.34286956920002)"><circle class="outline" cx="0" cy="0" r="25" fill="#57C7E3" stroke="#23b3d7" stroke-width="2px"/><text text-anchor="middle" pointer-events="none" font-family="sans-serif" dy="1.5625" font-size="25" fill="#2A2C34"/><text text-anchor="middle" pointer-events="none" y="5" font-size="10px" fill="#2A2C34" font-family="sans-serif"> </text></g><g class="node" transform="translate(85.18693411762794,49.833170905660054)"><circle class="outline" cx="0" cy="0" r="25" fill="#F79767" stroke="#f36924" stroke-width="2px"/><text text-anchor="middle" pointer-events="none" font-family="sans-serif" dy="1.5625" font-size="25" fill="#FFFFFF"/><text text-anchor="middle" pointer-events="none" y="5" font-size="10px" fill="#FFFFFF" font-family="sans-serif"> City</text></g><g class="node" transform="translate(-10.543874938634985,52.420998669773496)"><circle class="outline" cx="0" cy="0" r="25" fill="#8DCC93" stroke="#5db665" stroke-width="2px"/><text text-anchor="middle" pointer-events="none" font-family="sans-serif" dy="1.5625" font-size="25" fill="#2A2C34"/><text text-anchor="middle" pointer-events="none" y="5" font-size="10px" fill="#2A2C34" font-family="sans-serif"> Admin</text></g></g></svg>