<svg xmlns="http://www.w3.org/2000/svg" width="344.57373046875" height="282.7052001953125" viewBox="-71.22282409667969 17.43401336669922 344.57373046875 282.7052001953125"><title>Neo4j Graph Visualization</title><desc>Created using Neo4j (http://www.neo4j.com/)</desc><g class="layer relationships"><g class="relationship" transform="translate(7.781456806741646 208.68507859916707) rotate(357.4207085149253)"><path class="outline" fill="#A5ABB6" stroke="none" d="M 25 0.5 L 93.30896766595117 0.5 L 93.30896766595117 -0.5 L 25 -0.5 Z M 136.50037391595117 0.5 L 204.80934158190234 0.5 L 204.80934158190234 3.5 L 211.80934158190234 0 L 204.80934158190234 -3.5 L 204.80934158190234 -0.5 L 136.50037391595117 -0.5 Z"/><text text-anchor="middle" pointer-events="none" font-size="8px" fill="#000000" x="114.90467079095117" y="3" font-family="sans-serif">LOCATED</text></g><g class="relationship" transform="translate(101.01709403654348 132.0789687694039) rotate(384.7076061275153)"><path class="outline" fill="#A5ABB6" stroke="none" d="M 25 0.5 L 53.79326563765292 0.5 L 53.79326563765292 -0.5 L 25 -0.5 Z M 96.98467188765292 0.5 L 125.77793752530584 0.5 L 125.77793752530584 3.5 L 132.77793752530584 0 L 125.77793752530584 -3.5 L 125.77793752530584 -0.5 L 96.98467188765292 -0.5 Z"/><text text-anchor="middle" pointer-events="none" font-size="8px" fill="#000000" x="75.38896876265292" y="3" font-family="sans-serif">LOCATED</text></g><g class="relationship" transform="translate(7.781456806741646 208.68507859916707) rotate(320.59211379025214)"><path class="outline" fill="#A5ABB6" stroke="none" d="M 25 0.5 L 41.391912466802765 0.5 L 41.391912466802765 -0.5 L 25 -0.5 Z M 72.27863121680276 0.5 L 88.67054368360553 0.5 L 88.67054368360553 3.5 L 95.67054368360553 0 L 88.67054368360553 -3.5 L 88.67054368360553 -0.5 L 72.27863121680276 -0.5 Z"/><text text-anchor="middle" pointer-events="none" font-size="8px" fill="#000000" x="56.835271841802765" y="3" font-family="sans-serif">OWNS</text></g><g class="relationship" transform="translate(101.01709403654348 132.0789687694039) rotate(202.74242896601288)"><path class="outline" fill="#A5ABB6" stroke="none" d="M 25 0.5 L 42.166500458122925 0.5 L 42.166500458122925 -0.5 L 25 -0.5 Z M 80.47900045812293 0.5 L 97.64550091624585 0.5 L 97.64550091624585 3.5 L 104.64550091624585 0 L 97.64550091624585 -3.5 L 97.64550091624585 -0.5 L 80.47900045812293 -0.5 Z"/><text text-anchor="middle" pointer-events="none" font-size="8px" fill="#000000" x="61.322750458122925" y="3" transform="rotate(180 61.322750458122925 0)" font-family="sans-serif">SERVES</text></g><g class="relationship" transform="translate(152.61486312793028 46.434011428234314) rotate(418.82010290738174)"><path class="outline" fill="#A5ABB6" stroke="none" d="M 25 0.5 L 63.49929778901222 0.5 L 63.49929778901222 -0.5 L 25 -0.5 Z M 106.69070403901222 0.5 L 145.19000182802444 0.5 L 145.19000182802444 3.5 L 152.19000182802444 0 L 145.19000182802444 -3.5 L 145.19000182802444 -0.5 L 106.69070403901222 -0.5 Z"/><text text-anchor="middle" pointer-events="none" font-size="8px" fill="#000000" x="85.09500091401222" y="3" font-family="sans-serif">LOCATED</text></g><g class="relationship" transform="translate(7.781456806741646 208.68507859916707) rotate(258.26247267681146)"><path class="outline" fill="#A5ABB6" stroke="none" d="M 25 0.5 L 46.876206725151604 0.5 L 46.876206725151604 -0.5 L 25 -0.5 Z M 75.5558942251516 0.5 L 97.43210095030321 0.5 L 97.43210095030321 3.5 L 104.43210095030321 0 L 97.43210095030321 -3.5 L 97.43210095030321 -0.5 L 75.5558942251516 -0.5 Z"/><text text-anchor="middle" pointer-events="none" font-size="8px" fill="#000000" x="61.216050475151604" y="3" transform="rotate(180 61.216050475151604 0)" font-family="sans-serif">LIKES</text></g><g class="relationship" transform="translate(7.781456806741646 208.68507859916707) rotate(397.8415905958684)"><path class="outline" fill="#A5ABB6" stroke="none" d="M 6.953439040707552 24.018736134675446 L 17.306200844808384 62.65576918623819 A 17.916697508022974 17.916697508022974 0 1 1 -17.306200844808384 62.65576918623819 L -8.765172356425198 30.780216918698923 L -4.901469051268926 31.815493099109005 L -6.4704761275630185 24.148145657226706 L -11.662949835292403 30.00375978339136 L -7.79924653013613 31.039035963801442 L -16.340275018519314 62.91458823134071 A 16.916697508022974 16.916697508022974 0 1 0 16.340275018519314 62.91458823134071 L 5.987513214418485 24.277555179777966 Z"/><text text-anchor="middle" pointer-events="none" font-size="8px" fill="#000000" x="0" y="94.20964923467838" font-family="sans-serif">FOLLOWS</text></g></g><g class="layer nodes"><g class="node" transform="translate(152.61486312793028,46.434011428234314)"><circle class="outline" cx="0" cy="0" r="25" fill="#F16667" stroke="#eb2728" stroke-width="2px"/><text text-anchor="middle" pointer-events="none" font-family="sans-serif" dy="1.5625" font-size="25" fill="#FFFFFF"/><text text-anchor="middle" pointer-events="none" y="5" font-size="10px" fill="#FFFFFF" font-family="sans-serif"> Admin</text></g><g class="node" transform="translate(244.35088688403704,198.02820225767974)"><circle class="outline" cx="0" cy="0" r="25" fill="#F79767" stroke="#f36924" stroke-width="2px"/><text text-anchor="middle" pointer-events="none" font-family="sans-serif" dy="1.5625" font-size="25" fill="#FFFFFF"/><text text-anchor="middle" pointer-events="none" y="5" font-size="10px" fill="#FFFFFF" font-family="sans-serif"> City</text></g><g class="node" transform="translate(-18.54873669411353,81.95943136618978)"><circle class="outline" cx="0" cy="0" r="25" fill="#D9C8AE" stroke="#c0a378" stroke-width="2px"/><text text-anchor="middle" pointer-events="none" font-family="sans-serif" dy="1.5625" font-size="25" fill="#2A2C34"/><text text-anchor="middle" pointer-events="none" y="5" font-size="10px" fill="#2A2C34" font-family="sans-serif"> Cuisine</text></g><g class="node" transform="translate(101.01709403654348,132.0789687694039)"><circle class="outline" cx="0" cy="0" r="25" fill="#8DCC93" stroke="#5db665" stroke-width="2px"/><text text-anchor="middle" pointer-events="none" font-family="sans-serif" dy="1.5625" font-size="25" fill="#2A2C34"/><text text-anchor="middle" pointer-events="none" y="5" font-size="10px" fill="#2A2C34" font-family="sans-serif"> Restaur…</text></g><g class="node" transform="translate(7.781456806741646,208.68507859916707)"><circle class="outline" cx="0" cy="0" r="25" fill="#57C7E3" stroke="#23b3d7" stroke-width="2px"/><text text-anchor="middle" pointer-events="none" font-family="sans-serif" dy="1.5625" font-size="25" fill="#2A2C34"/><text text-anchor="middle" pointer-events="none" y="5" font-size="10px" fill="#2A2C34" font-family="sans-serif"> </text></g></g></svg>