<svg xmlns="http://www.w3.org/2000/svg" width="364.916015625" height="189.81065368652344" viewBox="-324.2773742675781 16.567707061767578 364.916015625 189.81065368652344"><title>Neo4j Graph Visualization</title><desc>Created using Neo4j (http://www.neo4j.com/)</desc><g class="layer relationships"><g class="relationship" transform="translate(10.19139043090479 172.03291043543217) rotate(270.69094465866806)"><path class="outline" fill="#A5ABB6" stroke="none" d="M 25 0.5 L 34.91167405177464 0.5 L 34.91167405177464 -0.5 L 25 -0.5 Z M 78.10308030177464 0.5 L 88.01475435354928 0.5 L 88.01475435354928 3.5 L 95.01475435354928 0 L 88.01475435354928 -3.5 L 88.01475435354928 -0.5 L 78.10308030177464 -0.5 Z"/><text text-anchor="middle" pointer-events="none" font-size="8px" fill="#000000" x="56.50737717677464" y="3" font-family="sans-serif">LOCATED</text></g><g class="relationship" transform="translate(-295.2773803764251 175.2844036603208) rotate(271.60813936372847)"><path class="outline" fill="#A5ABB6" stroke="none" d="M 25 0.5 L 39.166483637954585 0.5 L 39.166483637954585 -0.5 L 25 -0.5 Z M 82.35788988795458 0.5 L 96.52437352590917 0.5 L 96.52437352590917 3.5 L 103.52437352590917 0 L 96.52437352590917 -3.5 L 96.52437352590917 -0.5 L 82.35788988795458 -0.5 Z"/><text text-anchor="middle" pointer-events="none" font-size="8px" fill="#000000" x="60.762186762954585" y="3" font-family="sans-serif">LOCATED</text></g><g class="relationship" transform="translate(-80.75393692883128 177.378363947369) rotate(269.561107495785)"><path class="outline" fill="#A5ABB6" stroke="none" d="M 25 0.5 L 40.81155853185976 0.5 L 40.81155853185976 -0.5 L 25 -0.5 Z M 84.00296478185976 0.5 L 99.81452331371952 0.5 L 99.81452331371952 3.5 L 106.81452331371952 0 L 99.81452331371952 -3.5 L 99.81452331371952 -0.5 L 84.00296478185976 -0.5 Z"/><text text-anchor="middle" pointer-events="none" font-size="8px" fill="#000000" x="62.40726165685976" y="3" transform="rotate(180 62.40726165685976 0)" font-family="sans-serif">LOCATED</text></g><g class="relationship" transform="translate(-176.5755299740794 176.47657446525085) rotate(271.02572085946315)"><path class="outline" fill="#A5ABB6" stroke="none" d="M 25 0.5 L 40.19393708378844 0.5 L 40.19393708378844 -0.5 L 25 -0.5 Z M 83.38534333378844 0.5 L 98.57928041757688 0.5 L 98.57928041757688 3.5 L 105.57928041757688 0 L 98.57928041757688 -3.5 L 98.57928041757688 -0.5 L 83.38534333378844 -0.5 Z"/><text text-anchor="middle" pointer-events="none" font-size="8px" fill="#000000" x="61.78964020878844" y="3" font-family="sans-serif">LOCATED</text></g><g class="relationship" transform="translate(-295.2773803764251 175.2844036603208) rotate(360.57542539397235)"><path class="outline" fill="#A5ABB6" stroke="none" d="M 25 0.5 L 33.29532473936554 0.5 L 33.29532473936554 -0.5 L 25 -0.5 Z M 78.41251223936554 0.5 L 86.70783697873108 0.5 L 86.70783697873108 3.5 L 93.70783697873108 0 L 86.70783697873108 -3.5 L 86.70783697873108 -0.5 L 78.41251223936554 -0.5 Z"/><text text-anchor="middle" pointer-events="none" font-size="8px" fill="#000000" x="55.85391848936554" y="3" font-family="sans-serif">FOLLOWS</text></g></g><g class="layer nodes"><g class="node" transform="translate(10.19139043090479,172.03291043543217)"><circle class="outline" cx="0" cy="0" r="25" fill="#DA7194" stroke="#cc3c6c" stroke-width="2px"/><text text-anchor="middle" pointer-events="none" font-family="sans-serif" dy="1.5625" font-size="25" fill="#FFFFFF"/><text text-anchor="middle" pointer-events="none" y="5" font-size="10px" fill="#FFFFFF" font-family="sans-serif"> heidi</text></g><g class="node" transform="translate(11.638644388028467,52.02688259296767)"><circle class="outline" cx="0" cy="0" r="25" fill="#4C8EDA" stroke="#2870c2" stroke-width="2px"/><text text-anchor="middle" pointer-events="none" font-family="sans-serif" dy="1.5625" font-size="25" fill="#FFFFFF"/><text text-anchor="middle" pointer-events="none" y="5" font-size="10px" fill="#FFFFFF" font-family="sans-serif"> Firenze</text></g><g class="node" transform="translate(-295.2773803764251,175.2844036603208)"><circle class="outline" cx="0" cy="0" r="25" fill="#DA7194" stroke="#cc3c6c" stroke-width="2px"/><text text-anchor="middle" pointer-events="none" font-family="sans-serif" dy="1.5625" font-size="25" fill="#FFFFFF"/><text text-anchor="middle" pointer-events="none" y="5" font-size="10px" fill="#FFFFFF" font-family="sans-serif"> Daenerys</text></g><g class="node" transform="translate(-291.6705184015373,46.81065094436126)"><circle class="outline" cx="0" cy="0" r="25" fill="#4C8EDA" stroke="#2870c2" stroke-width="2px"/><text text-anchor="middle" pointer-events="none" font-family="sans-serif" dy="1.5625" font-size="25" fill="#FFFFFF"/><text text-anchor="middle" pointer-events="none" y="5" font-size="10px" fill="#FFFFFF" font-family="sans-serif"> Genova</text></g><g class="node" transform="translate(-80.75393692883128,177.378363947369)"><circle class="outline" cx="0" cy="0" r="25" fill="#DA7194" stroke="#cc3c6c" stroke-width="2px"/><text text-anchor="middle" pointer-events="none" font-family="sans-serif" dy="1.5625" font-size="25" fill="#FFFFFF"/><text text-anchor="middle" pointer-events="none" y="5" font-size="10px" fill="#FFFFFF" font-family="sans-serif"> frank</text></g><g class="node" transform="translate(-81.76364202317936,45.567707883280036)"><circle class="outline" cx="0" cy="0" r="25" fill="#4C8EDA" stroke="#2870c2" stroke-width="2px"/><text text-anchor="middle" pointer-events="none" font-family="sans-serif" dy="1.5625" font-size="25" fill="#FFFFFF"/><text text-anchor="middle" pointer-events="none" y="5" font-size="10px" fill="#FFFFFF" font-family="sans-serif"> Livorno</text></g><g class="node" transform="translate(-176.5755299740794,176.47657446525085)"><circle class="outline" cx="0" cy="0" r="25" fill="#DA7194" stroke="#cc3c6c" stroke-width="2px"/><text text-anchor="middle" pointer-events="none" font-family="sans-serif" dy="1.5625" font-size="25" fill="#FFFFFF"/><text text-anchor="middle" pointer-events="none" y="5" font-size="10px" fill="#FFFFFF" font-family="sans-serif"> michael</text></g><g class="node" transform="translate(-174.23799763363567,45.91821809948789)"><circle class="outline" cx="0" cy="0" r="25" fill="#4C8EDA" stroke="#2870c2" stroke-width="2px"/><text text-anchor="middle" pointer-events="none" font-family="sans-serif" dy="1.5625" font-size="25" fill="#FFFFFF"/><text text-anchor="middle" pointer-events="none" y="5" font-size="10px" fill="#FFFFFF" font-family="sans-serif"> Torino</text></g></g></svg>