<svg xmlns="http://www.w3.org/2000/svg" width="335.05364990234375" height="220.8347930908203" viewBox="-60.35646438598633 24.454147338867188 335.05364990234375 220.8347930908203"><title>Neo4j Graph Visualization</title><desc>Created using Neo4j (http://www.neo4j.com/)</desc><g class="layer relationships"><g class="relationship" transform="translate(122.63337022919085 182.2889227409729) rotate(327.0182112922382)"><path class="outline" fill="#A5ABB6" stroke="none" d="M 25 0.5 L 47.29465300929019 0.5 L 47.29465300929019 -0.5 L 25 -0.5 Z M 92.41184050929019 0.5 L 114.70649351858037 0.5 L 114.70649351858037 3.5 L 121.70649351858037 0 L 114.70649351858037 -3.5 L 114.70649351858037 -0.5 L 92.41184050929019 -0.5 Z"/><text text-anchor="middle" pointer-events="none" font-size="8px" fill="#000000" x="69.85324675929019" y="3" font-family="sans-serif">FOLLOWS</text></g><g class="relationship" transform="translate(122.63337022919085 182.2889227409729) rotate(258.3907877663352)"><path class="outline" fill="#A5ABB6" stroke="none" d="M 25 0.5 L 39.70410760327567 0.5 L 39.70410760327567 -0.5 L 25 -0.5 Z M 84.82129510327567 0.5 L 99.52540270655135 0.5 L 99.52540270655135 3.5 L 106.52540270655135 0 L 99.52540270655135 -3.5 L 99.52540270655135 -0.5 L 84.82129510327567 -0.5 Z"/><text text-anchor="middle" pointer-events="none" font-size="8px" fill="#000000" x="62.26270135327567" y="3" transform="rotate(180 62.26270135327567 0)" font-family="sans-serif">FOLLOWS</text></g><g class="relationship" transform="translate(122.63337022919085 182.2889227409729) rotate(202.09106559469683)"><path class="outline" fill="#A5ABB6" stroke="none" d="M 25 0.5 L 57.03656434942204 0.5 L 57.03656434942204 -0.5 L 25 -0.5 Z M 102.15375184942204 0.5 L 134.19031619884407 0.5 L 134.19031619884407 3.5 L 141.19031619884407 0 L 134.19031619884407 -3.5 L 134.19031619884407 -0.5 L 102.15375184942204 -0.5 Z"/><text text-anchor="middle" pointer-events="none" font-size="8px" fill="#000000" x="79.59515809942204" y="3" transform="rotate(180 79.59515809942204 0)" font-family="sans-serif">FOLLOWS</text></g></g><g class="layer nodes"><g class="node selected" transform="translate(122.63337022919085,182.2889227409729)"><circle class="outline" cx="0" cy="0" r="25" fill="#DA7194" stroke="#cc3c6c" stroke-width="2px"/><text text-anchor="middle" pointer-events="none" font-family="sans-serif" dy="1.5625" font-size="25" fill="#FFFFFF"/><text text-anchor="middle" pointer-events="none" y="5" font-size="10px" fill="#FFFFFF" font-family="sans-serif"> simone</text></g><g class="node" transform="translate(245.69717889243014,102.42595110946587)"><circle class="outline" cx="0" cy="0" r="25" fill="#DA7194" stroke="#cc3c6c" stroke-width="2px"/><text text-anchor="middle" pointer-events="none" font-family="sans-serif" dy="1.5625" font-size="25" fill="#FFFFFF"/><text text-anchor="middle" pointer-events="none" y="5" font-size="10px" fill="#FFFFFF" font-family="sans-serif"> michael</text></g><g class="node" transform="translate(96.16580078715644,53.454147447376045)"><circle class="outline" cx="0" cy="0" r="25" fill="#DA7194" stroke="#cc3c6c" stroke-width="2px"/><text text-anchor="middle" pointer-events="none" font-family="sans-serif" dy="1.5625" font-size="25" fill="#FFFFFF"/><text text-anchor="middle" pointer-events="none" y="5" font-size="10px" fill="#FFFFFF" font-family="sans-serif"> Rupert</text></g><g class="node" transform="translate(-31.356463826651108,119.78810510051298)"><circle class="outline" cx="0" cy="0" r="25" fill="#DA7194" stroke="#cc3c6c" stroke-width="2px"/><text text-anchor="middle" pointer-events="none" font-family="sans-serif" dy="1.5625" font-size="25" fill="#FFFFFF"/><text text-anchor="middle" pointer-events="none" y="5" font-size="10px" fill="#FFFFFF" font-family="sans-serif"> bob</text></g></g></svg>